<svg width="88" height="100" viewBox="0 0 88 100" fill="none" xmlns="http://www.w3.org/2000/svg">
<path d="M26.4062 3.45508C27.4609 1.3375 29.6289 0 31.9922 0H55.5078C57.8711 0 60.0391 1.3375 61.0937 3.45508L62.5 6.25H81.25C84.707 6.25 87.5 9.04883 87.5 12.5C87.5 15.9512 84.707 18.75 81.25 18.75H6.25C2.79883 18.75 0 15.9512 0 12.5C0 9.04883 2.79883 6.25 6.25 6.25H25L26.4062 3.45508V3.45508ZM77.1094 91.0352C76.7969 96.1523 72.7148 100 67.7539 100H19.7461C14.7949 100 10.6973 96.1523 10.3887 91.0352L6.07422 25H81.25L77.1094 91.0352Z" fill="white"/>
</svg>
